<?xml version="1.0" encoding="utf-8"?>
<!-- Generator: Adobe Illustrator 21.1.0, SVG Export Plug-In . SVG Version: 6.00 Build 0)  -->
<svg version="1.1" xmlns="http://www.w3.org/2000/svg" xmlns:xlink="http://www.w3.org/1999/xlink" x="0px" y="0px"
	 viewBox="0 0 900 1440" style="enable-background:new 0 0 900 1440;" xml:space="preserve">
<style type="text/css">
	.st0{fill:#2E2000;}
	.st1{fill:#8C6239;}
	.st2{fill:#333333;}
	.st3{fill:#808080;}
	.st4{fill:none;stroke:#F7931E;stroke-width:5;stroke-miterlimit:10;}
	.st5{fill:#F7931E;}
	.st6{fill:none;stroke:#F7931E;stroke-width:2;stroke-miterlimit:10;}
	.st7{fill:#F7931E;stroke:#F7931E;stroke-width:2;stroke-miterlimit:10;}
	.st8{fill:#FFFFFF;}
	.st9{fill:#603813;stroke:#8C6239;stroke-miterlimit:10;}
	.st10{fill:none;stroke:#000000;stroke-miterlimit:10;}
	.st11{fill:#F2F2F2;}
</style>
<g id="Layer_3">
	<path class="st0" d="M450.2,435h-74.4c-50.5,0-91.8-47-91.8-104.5V203.6c0-57.5,41.3-104.5,91.8-104.5h74.4
		c37.8-6.8,91.8,47,91.8,104.5v126.8C542,388,500.7,435,450.2,435z"/>
</g>
<g id="Layer_7">
	<g>
		<path class="st1" d="M402.1,412.5c-7.5,0-13.6-6.1-13.6-13.6v-54.8c0-7.5,6.1-13.6,13.6-13.6h31.8c7.5,0,13.6,6.1,13.6,13.6v54.8
			c0,7.5-6.1,13.6-13.6,13.6H402.1z"/>
		<path d="M433.9,331c7.2,0,13.1,5.9,13.1,13.1v54.8c0,7.2-5.9,13.1-13.1,13.1h-31.8c-7.2,0-13.1-5.9-13.1-13.1v-54.8
			c0-7.2,5.9-13.1,13.1-13.1H433.9 M433.9,330h-31.8c-7.8,0-14.1,6.3-14.1,14.1v54.8c0,7.8,6.3,14.1,14.1,14.1h31.8
			c7.8,0,14.1-6.3,14.1-14.1v-54.8C448,336.3,441.7,330,433.9,330L433.9,330z"/>
	</g>
</g>
<g id="Layer_9">
	<path class="st1" d="M341.5,608L341.5,608c-8.5,0-15.5-7-15.5-15.5v-164c0-8.5,7-15.5,15.5-15.5h0c8.5,0,15.5,7,15.5,15.5v164
		C357,601,350,608,341.5,608z"/>
	<path class="st1" d="M486.5,608h-1c-8.5,0-15.5-7-15.5-15.5v-164c0-8.5,7-15.5,15.5-15.5h1c8.5,0,15.5,7,15.5,15.5v164
		C502,601,495,608,486.5,608z"/>
</g>
<g id="Layer_14">
</g>
<g id="Layer_11">
	<path d="M452,613h-73c-11.5,0-21-9.5-21-21v-3c0-11.5,9.4-21,21-21h73c11.5,0,21,9.5,21,21v3C473,603.5,463.6,613,452,613z"/>
	<path class="st2" d="M389,816h-5c-13.3,0-24-10.7-24-24V592c0-13.3,10.7-24,24-24h5c13.3,0,24,10.7,24,24v200
		C413,805.3,402.3,816,389,816z"/>
	<path class="st2" d="M449,816h-5c-13.3,0-24-10.7-24-24V592c0-13.3,10.7-24,24-24h5c13.3,0,24,10.7,24,24v200
		C473,805.3,462.3,816,449,816z"/>
</g>
<g id="Layer_13">
	<path d="M413.9,803.5V735h-54.4v65h-22c-6.3,0-11.5,5-11.5,11v7c0,6,5.2,11,11.5,11h68c6.3,0,11.5-5,11.5-11v-7
		C417,808.1,415.8,805.5,413.9,803.5z"/>
	<path d="M497.8,799h-23.5v-64h-53.2v67.5c-1.9,2-3.1,4.6-3.1,7.5v8c0,6,5.1,11,11.2,11h68.5c6.2,0,11.2-5,11.2-11v-8
		C509,803.9,503.9,799,497.8,799z"/>
	<path class="st3" d="M358,800c0,2.2,13.4,4,30,4"/>
	<path class="st3" d="M358,782c0,3.9,13.4,7,30,7"/>
	<path class="st3" d="M358,762c0,5,12.5,9,28,9"/>
	<path class="st3" d="M477,796c0,2.2-12.5,4-28,4"/>
	<path class="st3" d="M478,778c0,2.2-12.5,4-28,4"/>
	<path class="st3" d="M478,762c0,5-12.5,9-28,9"/>
	<ellipse class="st4" cx="537.5" cy="257" rx="7.5" ry="15"/>
	<ellipse class="st4" cx="292.5" cy="263" rx="7.5" ry="15"/>
	<path class="st4" d="M412.5,426.5"/>
	<path class="st4" d="M445.5,380.5"/>
	<path class="st4" d="M412.5,426.5"/>
	<path class="st4" d="M388.5,376.5"/>
</g>
<g id="Layer_10">
	<path class="st3" d="M477.5,453.3l26.9-27.5C493,402.6,471,384.6,444.1,377c-1.9,14.7-14.2,26-29.1,26c-14.9,0-27.2-11.3-29.1-26
		c-27.5,7.8-49.8,26.3-60.9,50.1l25.6,26.2c-2.6,5.1-4,11-4,17.2c0,9.4,3.3,18,8.8,24.4V598h117.4V494.9c5.5-6.4,8.8-14.9,8.8-24.4
		C481.5,464.3,480,458.4,477.5,453.3z"/>
</g>
<g id="Layer_16">
	<g>
		<g>
			<path class="st5" d="M382.9,769.7c-0.2,1.6,0.7,3.1,2.1,3.9c0.4,0.3,1.1,0.3,1.5,0c1.2-0.7,1.6-2,1.3-3.4
				c-0.2-1.1-1.2-2.2-2.3-2.4c-0.7-0.1-1.3,0.1-1.7,0.7c-1,1.3-0.1,3.5,1.5,3.8c0.8,0.2,1.6-0.2,1.8-1c0.2-0.7-0.3-1.7-1-1.8
				c-0.4-0.1,0.2,0.1,0.3,0.4c0,0.1-0.2,0.5,0,0.3c-0.6,0.2-1.1,0.5-1.7,0.7c0.3,0,0.2,0.1,0.1,0c0.1,0.1,0.1,0.1,0,0
				c-0.1-0.1-0.1-0.1,0,0c-0.2-0.1-0.1-0.1,0,0.1c-0.1-0.3,0,0,0,0.1c0.1,0.3,0-0.2,0,0.1c0,0.3,0.1-0.3,0,0.1c-0.1,0.3,0-0.1,0,0
				c-0.1,0.1,0,0.1,0.1-0.1c-0.1,0.1-0.1,0.1,0,0c0.5,0,1,0,1.5,0c-0.5-0.3-0.6-0.7-0.6-1.4c0.1-0.8-0.7-1.5-1.5-1.5
				C383.5,768.2,382.9,768.9,382.9,769.7L382.9,769.7z"/>
		</g>
	</g>
	<g>
		<g>
			<path class="st5" d="M388.1,786.9c-1.2-0.2-2.4,0.1-3.3,0.9c-0.5,0.5-0.5,1.2-0.2,1.8c0.8,1.6,2.6,2.3,4.2,1.9
				c0.7-0.1,1.1-0.8,1.1-1.4c0.1-1.1-0.4-2.1-1.1-2.9c-0.6-0.6-1.6-0.6-2.1,0c-0.6,0.6-0.6,1.5,0,2.1c0.2,0.2,0,0,0.1,0.1
				c0,0,0.1,0.3,0.1,0.1c0,0.1,0.1,0.2,0.1,0.3c0-0.3,0,0.2,0,0.2c0.4-0.5,0.7-1,1.1-1.4c0.1,0,0.1,0,0,0c-0.1,0-0.2,0-0.3,0
				c0.2,0,0.1,0,0,0c-0.2-0.1,0.1,0.1-0.1,0c-0.1,0-0.2-0.1-0.2-0.1c-0.2-0.1,0.1,0.1,0,0c0,0-0.2-0.2-0.1-0.1
				c0.1,0.1-0.1-0.2-0.1-0.2c-0.1,0.6-0.2,1.2-0.2,1.8c0.2-0.2,0,0,0.1-0.1c0.2-0.1-0.3,0.2,0.1-0.1c0.1,0,0.2,0,0,0
				c0.1,0,0.4,0,0.2,0c0.8,0.2,1.6-0.2,1.8-1C389.3,788,388.9,787.1,388.1,786.9L388.1,786.9z"/>
		</g>
	</g>
	<g>
		<g>
			<path class="st5" d="M384.3,801.9c-0.2,1.2,0.1,2.4,0.9,3.3c0.4,0.4,1,0.6,1.5,0.4c2.3-0.8,3.2-3.9,1.4-5.7
				c-1.4-1.3-3.5,0.8-2.1,2.1c0.3,0.3-0.1-0.1,0.1,0.1c0.1,0.1-0.1-0.2,0,0.1c0.1,0.2,0-0.1,0,0.1c0,0.1-0.1,0.3,0,0.1
				c0,0.1,0,0.2-0.1,0.3c0.1-0.2,0,0-0.1,0.1c-0.1,0.1-0.1,0.1,0,0c0,0-0.1,0.1-0.1,0.1c0.3-0.1-0.2,0,0.1-0.1
				c0.5,0.1,1,0.3,1.5,0.4c-0.1-0.1-0.2-0.3-0.2-0.4c0.1-0.8-0.2-1.6-1-1.8C385.4,800.7,384.4,801.1,384.3,801.9L384.3,801.9z"/>
		</g>
	</g>
	<g>
		<g>
			<path class="st5" d="M452.1,768.2c-1.3-0.4-2.5,0.7-2.6,2c-0.1,1.2,0.8,2.3,2,2.3c0.7,0,1.2-0.5,1.4-1.1c0.4-1-0.2-2-1.1-2.5
				c-1-0.5-2.3-0.2-2.8,0.7c-0.4,0.7-0.2,1.6,0.5,2.1c0.7,0.4,1.7,0.2,2.1-0.5c-0.2,0.4-0.8,0.6-1.2,0.4c0.2,0.1,0,0-0.1-0.1
				c-0.2-0.2-0.3-0.4-0.2-0.7c0-0.3,0-0.4,0-0.2c0.5-0.4,1-0.7,1.4-1.1c-0.3,0-0.1,0.1,0.5,0.2c0.3,0.2,0.4,0.4,0.5,0.6
				c-0.1-0.2,0,0.4,0,0c0,0.3,0,0.3,0,0.2c-0.1,0.2-0.1,0.3-0.1,0.2c-0.2,0.4-0.7,0.6-1.2,0.5c0.8,0.2,1.7-0.3,1.8-1
				C453.3,769.2,452.9,768.4,452.1,768.2L452.1,768.2z"/>
		</g>
	</g>
	<g>
		<g>
			<path class="st5" d="M453.3,781.6c-0.1-0.1-0.2-0.3-0.4-0.4c-0.1-0.3-0.1-0.5-0.2-0.8c0.1-0.3,0.2-0.6,0.4-0.8
				c0.1,0,0.1-0.1,0.2-0.1c-0.2,0.1,0.1,0,0.2,0c0.1,0,0.1,0,0,0c-0.1,0-0.1,0,0.2,0.1c0.5,0.1,0.1,0,0-0.1c-0.5-0.2-1-0.3-1.5-0.2
				c-1.4,0.2-2.2,1.4-1.5,2.7c0.4,0.7,1.4,0.9,2.1,0.5c0.7-0.4,0.9-1.3,0.5-2.1c0,0.3,0.1,0.6,0.1,0.9c-0.1,0.2-0.3,0.4-0.4,0.7
				c0,0-0.4,0.2-0.4,0.2c0.2-0.1-0.3,0.1,0,0c-0.2,0-0.2-0.1,0,0c0.2,0.1-0.3-0.1,0,0c0.6,0.3,1.3,0.3,1.9,0
				c0.6-0.2,1.1-0.7,1.3-1.3c0.2-0.7-0.1-1.6-0.8-1.9c-0.7-0.3-1.6-0.2-2.1,0.5C452.4,780.2,452.6,781.2,453.3,781.6L453.3,781.6z"
				/>
		</g>
	</g>
	<g>
		<g>
			<path class="st5" d="M454.1,801.3c2.4-0.7,2.7-4.3,0.4-5.3c-1.3-0.6-2.7,0.4-3.4,1.5c-0.7,1.2-0.7,2.5-0.2,3.7
				c0.3,0.7,1.4,0.9,2.1,0.5c0.8-0.4,0.9-1.3,0.5-2.1c0.1,0.1,0,0,0-0.1c0,0.2,0-0.1,0-0.1c0-0.3,0,0.2,0-0.1c0,0,0.1-0.3,0-0.2
				c0-0.1,0.1-0.2,0.2-0.3c-0.1,0.1,0,0,0.1-0.1c0.2-0.2,0.1-0.1,0.3-0.2c-0.3,0-0.5,0-0.8,0c0.2,0.1,0,0-0.1-0.1
				c0,0-0.2-0.2-0.1-0.1c0.1,0.1-0.1-0.2,0,0c0.1,0.2,0-0.1,0,0c0,0,0,0.3,0,0.1c0-0.1,0-0.1,0,0c0,0,0-0.1,0.1-0.1
				c-0.1,0.1,0,0,0,0c0.2-0.2-0.1,0,0.2-0.1C451.5,798.9,452.2,801.8,454.1,801.3L454.1,801.3z"/>
		</g>
	</g>
</g>
<g id="Layer_17">
	<path class="st6" d="M388.5,376.5c0,19.9,13,36,29,36"/>
	<path class="st6" d="M446.5,376.5c0,19.9-12.5,36-28,36"/>
	<circle class="st7" cx="419" cy="416" r="4"/>
</g>
<g id="Layer_15">
</g>
<g id="Layer_12">
</g>
<g id="Layer_2">
	<g>
		<path class="st1" d="M529.4,204c-2.9,0-5.7,0.5-8.3,1.5C510.5,153.3,465,114,410.5,114c-54.1,0-99.3,38.7-110.4,90.3
			c-2.5-0.9-5.2-1.3-8-1.3c-13.8,0-25.1,11.4-25.1,25.5s11.2,25.5,25.1,25.5c2.7,0,5.4-0.5,7.8-1.3c10.7,52.1,56.2,91.3,110.6,91.3
			c55.2,0,101.1-40.2,111-93.4c2.5,0.9,5.1,1.4,7.9,1.4c13,0,23.6-10.7,23.6-24S542.4,204,529.4,204z"/>
	</g>
	<path class="st8" d="M446,279c0,12.2-15,22-33.5,22s-33.5-9.8-33.5-22"/>
	<path class="st9" d="M396.5,250.1c4.9,8.4,19.7,8.9,33.3,1.1"/>
</g>
<g id="Layer_6">
	<g>
		<path d="M437.1,189.2c-1.4,0-2.5-0.9-2.9-2.2c-0.4-1.6,0.5-3.2,2.1-3.7l34.8-9.3c0.3-0.1,0.5-0.1,0.8-0.1c1.4,0,2.5,0.9,2.9,2.2
			c0.4,1.6-0.5,3.2-2.1,3.7l-34.8,9.3C437.6,189.1,437.4,189.2,437.1,189.2z"/>
		<path d="M471.9,174.3L471.9,174.3c1.1,0,2.1,0.8,2.4,1.9c0.4,1.3-0.4,2.7-1.8,3.1l-34.8,9.3c-0.2,0.1-0.4,0.1-0.6,0.1
			c-1.1,0-2.1-0.8-2.4-1.9c-0.4-1.3,0.4-2.7,1.8-3.1l34.8-9.3C471.5,174.4,471.7,174.3,471.9,174.3 M471.9,173.3
			c-0.3,0-0.6,0-0.9,0.1l-34.8,9.3c-1.9,0.5-3,2.4-2.5,4.3c0.4,1.6,1.8,2.6,3.4,2.6c0.3,0,0.6,0,0.9-0.1l34.8-9.3
			c1.9-0.5,3-2.4,2.5-4.3C474.8,174.4,473.4,173.3,471.9,173.3L471.9,173.3z"/>
	</g>
	<g>
		<path d="M383.9,189.2c-0.3,0-0.5,0-0.8-0.1l-34.8-9.3c-1.6-0.4-2.5-2.1-2.1-3.7c0.4-1.3,1.5-2.2,2.9-2.2c0.3,0,0.5,0,0.8,0.1
			l34.8,9.3c1.6,0.4,2.5,2.1,2.1,3.7C386.4,188.2,385.2,189.2,383.9,189.2z"/>
		<path d="M349.1,174.3L349.1,174.3c0.2,0,0.4,0,0.6,0.1l34.8,9.3c1.3,0.4,2.1,1.7,1.8,3.1c-0.3,1.1-1.3,1.9-2.4,1.9
			c-0.2,0-0.4,0-0.6-0.1l-34.8-9.3c-1.3-0.4-2.1-1.7-1.8-3.1C347,175.1,348,174.3,349.1,174.3 M349.1,173.3c-1.5,0-3,1-3.4,2.6
			c-0.5,1.9,0.6,3.8,2.5,4.3l34.8,9.3c0.3,0.1,0.6,0.1,0.9,0.1c1.5,0,3-1,3.4-2.6c0.5-1.9-0.6-3.8-2.5-4.3l-34.8-9.3
			C349.7,173.4,349.4,173.3,349.1,173.3L349.1,173.3z"/>
	</g>
</g>
<g id="Layer_1">
	<path class="st0" d="M512,337L512,337c-14.4,0-26.1-11.7-26.1-26.1V172.3c0-14.4,11.7-26.1,26.1-26.1h0c14.4,0,26.1,11.7,26.1,26.1
		v138.6C538.1,325.3,526.4,337,512,337z"/>
	<path class="st0" d="M467,102l62.1,58.6c11.7,13.9,9.8,34.8-4.1,46.5v0c-13.9,11.7-34.8,9.8-46.5-4.1l-61.7-73.5
		c-11.7-13.9-6.8-21.4,3.1-32.4l3-1C433,91,462,93,467,102z"/>
	<path class="st0" d="M387.3,135.9l-52.9,67c-12.8,12.8-33.8,12.8-46.7,0l0,0c-1.7-4.3-2.6-8.8-3-13.3c-1.6-17.9,5.2-35.6,18-48.4
		L349,102c8-8,20.2-1.5,30-6c13-6,17.3-0.8,20-3l-2,2c6,4-0.7,0.1,0,0C412.9,92.4,415.1,109.9,387.3,135.9z"/>
	<path class="st0" d="M320,337L320,337c-14.4,0-26.1-11.7-26.1-26.1V172.3c0-14.4,11.7-26.1,26.1-26.1h0c14.4,0,26.1,11.7,26.1,26.1
		v138.6C346.1,325.3,334.4,337,320,337z"/>
	<path class="st0" d="M457,138H357c-14.8,0-27-12.1-27-27v0l0,0c0.1-0.1,0.2-0.2,0.4-0.3c15.7-11.6,34.9-17.6,54.4-17.4L459,94
		c19,5,21,8,25,17v0C484,125.8,471.9,138,457,138z"/>
</g>
<g id="Layer_8">
</g>
<g id="Layer_4">
	<g>
		<path d="M449,232.5c-8.5,0-15.5-8.1-15.5-18s7-18,15.5-18s15.5,8.1,15.5,18S457.5,232.5,449,232.5z"/>
		<path d="M449,197c8.3,0,15,7.9,15,17.5s-6.7,17.5-15,17.5s-15-7.9-15-17.5S440.7,197,449,197 M449,196c-8.8,0-16,8.3-16,18.5
			s7.2,18.5,16,18.5s16-8.3,16-18.5S457.8,196,449,196L449,196z"/>
	</g>
	<g>
		<path d="M371.5,232.5c-8.3,0-15-8.1-15-18s6.7-18,15-18s15,8.1,15,18S379.8,232.5,371.5,232.5z"/>
		<path d="M371.5,197c8,0,14.5,7.9,14.5,17.5s-6.5,17.5-14.5,17.5s-14.5-7.9-14.5-17.5S363.5,197,371.5,197 M371.5,196
			c-8.6,0-15.5,8.3-15.5,18.5s6.9,18.5,15.5,18.5s15.5-8.3,15.5-18.5S380.1,196,371.5,196L371.5,196z"/>
	</g>
	<g>
		<line class="st10" x1="356.5" y1="196.5" x2="381.5" y2="196.5"/>
	</g>
	<g>
		<line class="st10" x1="437" y1="196.5" x2="469.5" y2="196.5"/>
	</g>
</g>
<g id="Layer_5">
	<g>
		<path class="st11" d="M447.5,222.5c-2.2,0-4-3.4-4-7.5s1.8-7.5,4-7.5s4,3.4,4,7.5S449.7,222.5,447.5,222.5z"/>
		<path d="M447.5,208c1.7,0,3.5,2.9,3.5,7s-1.8,7-3.5,7s-3.5-2.9-3.5-7S445.8,208,447.5,208 M447.5,207c-2.5,0-4.5,3.6-4.5,8
			s2,8,4.5,8s4.5-3.6,4.5-8S450,207,447.5,207L447.5,207z"/>
	</g>
	<g>
		<ellipse class="st11" cx="372" cy="215" rx="4.5" ry="7.5"/>
		<path d="M372,208c2.2,0,4,3.2,4,7s-1.8,7-4,7s-4-3.2-4-7S369.8,208,372,208 M372,207c-2.8,0-5,3.6-5,8s2.2,8,5,8s5-3.6,5-8
			S374.8,207,372,207L372,207z"/>
	</g>
</g>
</svg>
